<?xml version="1.0" encoding="UTF-8"?>
<svg id="Layer_1" data-name="Layer 1" xmlns="http://www.w3.org/2000/svg" viewBox="0 0 550.02 550.03">
  <defs>
    <style>
      .cls-1 {
        fill: #fff;
      }
    </style>
  </defs>
  <path class="cls-1" d="M524.34,149.76c-5.99-22.39-23.62-40.02-46.01-46.01-40.58-10.87-203.32-10.87-203.32-10.87,0,0-162.74,0-203.32,10.87-22.39,5.99-40.02,23.62-46.01,46.01-10.87,40.58-10.87,125.26-10.87,125.26,0,0,0,84.68,10.87,125.26,5.99,22.39,23.62,40.02,46.01,46.01,40.58,10.87,203.32,10.87,203.32,10.87,0,0,162.74,0,203.32-10.87,22.39-5.99,40.02-23.62,46.01-46.01,10.87-40.58,10.87-125.26,10.87-125.26,0,0,0-84.68-10.87-125.26Z"/>
  <polygon class="cls-1" points="222.97 353.08 222.97 196.96 358.17 275.02 222.97 353.08"/>
</svg>